#!OML:ASF E:/inclinewalkrobotboard/Project1/Captureday1/Session1/subject1.ASF
:FULLY-SPECIFIED
:DEGREES
251
root 0 0 0 15.436521820251343 42.45420961982548 -0.32898734132349716
lowerback -10.643349667681576 -4.5205136044455525 -4.539380836050131
upperback -11.608123245833236 -5.613344102114085 8.889395614955077
thorax -5.439198321725472 -2.1079387558720057 12.15063363836413
lowerneck -3.003229226624602 -9.811204000567308 -8.426631921928259
upperneck 32.785723425256194 -12.286334508170519 0.08858663393026056
head 11.901811142951672 -6.369155956953844 -0.17345492131851414
rclavicle -4.469447731242287E-15 4.385337650430033E-15
rhumerus 161.4047153248311 6.294051490413796 -195.1712790760634
rradius 16.405431406505485
rwrist 83.54306791970525
rhand -17.124683276778928 7.99800124364932
rfingers 7.125020000000012
rthumb 9.068652832863446 -21.89283026420918
lclavicle 2.377009173028081E-15 -3.899591307382784E-15
lhumerus 85.06641691461226 32.91447200367658 16.459235283379773
lradius 49.11573329532735
lwrist -17.90230837182957
lhand -8.92100688774245 12.257894319183753
lfingers 7.125019999999984
lthumb 16.980231764522628 41.269092013930326
rfemur 156.4403927742044 -212.13501012330795 -184.40527033571
rtibia 59.72858290183897
rfoot -60.19961933924461 -21.724466915547
rtoes 60.678755889280325
lfemur -88.91002529921172 22.73427816614035 -52.86939656878589
ltibia 75.52937057095266
lfoot -12.502451293100663 32.72149216763317
ltoes 9.305447446541102
252
root 0 0 0 15.397369754625107 42.4642015962133 -0.30692582365661814
lowerback -10.62523574427833 -4.52162664440351 -4.543640397186147
upperback -11.598842003378437 -5.6144071142692535 8.885878340194695
thorax -5.440306642553696 -2.1075603310582487 12.148893886004124
lowerneck -3.0038392796081963 -9.810092320840816 -8.42336222846502
upperneck 32.78572423690869 -12.283715501212804 0.0835480811272129
head 11.901459207539977 -6.368315769109546 -0.17531320871706568
rclavicle -4.457567064530387E-15 4.4172370596942214E-15
rhumerus 161.31100374920663 6.329730002515557 -195.24666361373923
rradius 16.362146962612073
rwrist 83.59711081880292
rhand -17.12507414065158 8.005293145271796
rfingers 7.125020000000012
rthumb 9.068193334070266 -21.88479435256323
lclavicle 2.4372432994546797E-15 -3.822214819648538E-15
lhumerus 85.06006048242838 32.93737774252304 16.451150659700744
lradius 49.01150123241968
lwrist -17.945995450682585
lhand -8.981609709751698 12.302036456788688
lfingers 7.125019999999984
lthumb 16.92194528783345 41.323204698238825
rfemur 156.34563497843314 -212.04046955766444 -184.34342524631762
rtibia 59.48879853037913
rfoot -60.70980217808346 -21.519631798057542
rtoes 60.648108662263155
lfemur -88.92763412090363 22.7319249306898 -52.92599541219853
ltibia 75.51216378820892
lfoot -12.264084343719793 32.716880513105245
ltoes 9.224331628892024
253
root 0 0 0 15.354521568884888 42.47429002378895 -0.2826563194519327
lowerback -10.605397118667984 -4.522805120776832 -4.5483590618406655
upperback -11.588651345619054 -5.6155174924588245 8.881929412681
thorax -5.441512846516279 -2.107110652029691 12.146912259975288
lowerneck -3.0045995256967677 -9.808820607750983 -8.419690474829252
upperneck 32.78574529919535 -12.280798497994562 0.0780326506735749
head 11.901089316368015 -6.367364597528107 -0.17734925067197893
rclavicle -4.443959931044992E-15 4.451657337530364E-15
rhumerus 161.20983758022925 6.367474353383393 -195.32810632001085
rradius 16.314302182684614
rwrist 83.65739810144035
rhand -17.125442891234663 8.01294278808155
rfingers 7.125020000000012
rthumb 9.06774156231548 -21.87637408591364
lclavicle 2.5036272829952675E-15 -3.7371646336870224E-15
lhumerus 85.05429591722284 32.96309069522388 16.441472722170218
lradius 48.893955311810615
lwrist -17.994776075132684
lhand -9.049493896918658 12.35179877374023
lfingers 7.125019999999983
lthumb 16.856652799330305 41.384125938736226
rfemur 156.24076253223365 -211.93447401624263 -184.2751746052859
rtibia 59.219426245548505
rfoot -61.27740318559691 -21.291523313560994
rtoes 60.614956589286265
lfemur -88.94635846628248 22.72960340409759 -52.985612022528755
ltibia 75.49402840678822
lfoot -12.008721400503276 32.71135724907975
ltoes 9.137276803760813
254
root 0 0 0 15.307044109956225 42.484432114772346 -0.2556048221355134
lowerback -10.583406935235988 -4.52406769956306 -4.5536642608133375
upperback -11.577325054526511 -5.616690762153372 8.877436644757921
thorax -5.442841796802574 -2.1065724584998495 12.14463127512495
lowerneck -3.005550133924462 -9.807343973558854 -8.415512437517071
upperneck 32.78579191540064 -12.277504493441612 0.07192774151271752
head 11.900697109200983 -6.366271845087675 -0.17960525333986999
rclavicle -4.4283293984248886E-15 4.489169209019371E-15
rhumerus 161.09944569171662 6.407847441039046 -195.41707250526505
rradius 16.26090516847414
rwrist 83.72520151058285
rhand -17.125772088480417 8.021046454925719
rfingers 7.125020000000012
rthumb 9.067311843084566 -21.867461205768574
lclavicle 2.5775424851157926E-15 -3.642692452912236E-15
lhumerus 85.04899763908786 32.99223804795158 16.429778269720945
lradius 48.759845369332524
lwrist -18.049916816712024
lhand -9.12643115605113 12.4085254721486
lfingers 7.125019999999983
lthumb 16.782648874117854 41.45348541763607
rfemur 156.123741280451 -211.8145730220774 -184.19911333196507
rtibia 58.91391817319045
rfoot -61.91471085821824 -21.03483352453914
rtoes 60.578534063409904
lfemur -88.96642761230413 22.727274309191635 -53.0491303703404
ltibia 75.47466965159015
lfoot -11.7321078528087 32.704756023686414
ltoes 9.042767636963912
